/* XPM */
static char * udig_xpm[] = {
"64 64 121 2",
"  	c None",
". 	c #6194D5",
"+ 	c #3A84DF",
"@ 	c #4B84CD",
"# 	c #488BDE",
"$ 	c #3A86E6",
"% 	c #2B7EE4",
"& 	c #3383E5",
"* 	c #277CE3",
"= 	c #1E74DC",
"- 	c #548BCF",
"; 	c #3A80D8",
"> 	c #3A7ACA",
", 	c #3374C6",
"' 	c #428CE7",
") 	c #4185D8",
"! 	c #74A1BF",
"~ 	c #9FCBE9",
"{ 	c #ACD7E5",
"] 	c #A5D0E7",
"^ 	c #9BC7EA",
"/ 	c #96C3EC",
"( 	c #8EBBEF",
"_ 	c #87B3EA",
": 	c #6B9BD4",
"< 	c #5D9BE6",
"[ 	c #5383BF",
"} 	c #B0DBE4",
"| 	c #8AB6EF",
"1 	c #759CCD",
"2 	c #5896E3",
"3 	c #6A9DBE",
"4 	c #B3DEE3",
"5 	c #7EA4D3",
"6 	c #2472D1",
"7 	c #BDE7DF",
"8 	c #C5EFDD",
"9 	c #CBF5DB",
"0 	c #85ACD6",
"a 	c #6691C6",
"b 	c #8FB9E6",
"c 	c #4478BC",
"d 	c #5889C6",
"e 	c #6699CC",
"f 	c #5194E6",
"g 	c #4A91E7",
"h 	c #93AECF",
"i 	c #639CE5",
"j 	c #488EE7",
"k 	c #A7BAD1",
"l 	c #94BDF1",
"m 	c #619EEB",
"n 	c #679BDE",
"o 	c #639BAE",
"p 	c #4682BB",
"q 	c #3F8BAB",
"r 	c #41A28A",
"s 	c #357ACF",
"t 	c #73A4E2",
"u 	c #608FBB",
"v 	c #5DE47A",
"w 	c #5588B5",
"x 	c #43BC82",
"y 	c #3ECE69",
"z 	c #42AD7C",
"A 	c #44EB61",
"B 	c #3ABB70",
"C 	c #3690AB",
"D 	c #3278BA",
"E 	c #3CA582",
"F 	c #41D967",
"G 	c #56C784",
"H 	c #63EE7B",
"I 	c #53D278",
"J 	c #4FEC6B",
"K 	c #4AEC66",
"L 	c #3775AE",
"M 	c #35958B",
"N 	c #2D729D",
"O 	c #3282A4",
"P 	c #70E688",
"Q 	c #6DEF83",
"R 	c #53889A",
"S 	c #3E75BA",
"T 	c #6CD68B",
"U 	c #61BD8B",
"V 	c #5987A0",
"W 	c #318395",
"X 	c #47D86B",
"Y 	c #74F08A",
"Z 	c #51C979",
"` 	c #2A747A",
" .	c #579F92",
"..	c #3DC56C",
"+.	c #2E6B8C",
"@.	c #1C6FD5",
"#.	c #2064B8",
"$.	c #7DF091",
"%.	c #6CA5EC",
"&.	c #77C490",
"*.	c #63D189",
"=.	c #52B192",
"-.	c #339D76",
";.	c #76DF90",
">.	c #79ADEE",
",.	c #5FA2A3",
"'.	c #54AD8D",
").	c #38B769",
"!.	c #9CB4D1",
"~.	c #B1BFD0",
"{.	c #5AED73",
"].	c #899DB6",
"^.	c #B6C3D4",
"/.	c #A4C6F3",
"(.	c #B2CFF5",
"_.	c #9EC3F3",
":.	c #BCD5F7",
"<.	c #6DACBC",
"[.	c #E0E0E0",
"}.	c #4892A3",
"|.	c #49C674",
"                                                                                                                                ",
"    . + + + + + + + + + + + + + + + + + + + + + + + + + + + + + + + + + + + @                                                   ",
"  # $ % % % % % % % % % % % % % % % % % % % % % % % % % % % % % % % % % % % & $                                                 ",
"  $ * = = = = = = = = = = = = = = = = = = = = = = = = = = = = = = = = = = = = $ -                                               ",
"  $ = * $ ; > , , , , , , , , , , , , , , , , , , , , , , , , , , , , ; + ' $ $ @                                               ",
"  $ = * ) ! ~ { { { { { { { { { { { ] ] ] ] ~ ^ ^ ^ / / / / ( ( ( ( _ : . < $ $ @                                               ",
"  $ = = [ } } } } } } } } } } } } { { { { ] ] ] ~ ^ ^ ^ / / / ( ( | | | 1 2 $ $ @                                               ",
"  $ = = 3 4 4 4 4 4 4 4 4 4 4 4 4 } } } { { { { ] ] ~ ~ ^ / / / / ( ( ( 5 - $ $ @                                               ",
"  $ = 6 ! 4 4 4 7 7 7 7 7 7 4 4 4 4 4 4 } } { { { ] ] ~ ~ ~ ^ / / / ( ( 5 - $ $ @                                               ",
"  $ = 6 ! 7 7 7 7 7 7 7 7 7 7 7 7 7 4 4 4 4 } } { { { ] ] ~ ~ ^ / / / ( 5 - $ $ @                                               ",
"  $ = 6 ! 7 7 7 8 8 8 8 8 8 8 8 7 7 7 7 7 4 4 } } { { ] ] ] ~ ~ ^ / / / 5 - $ $ @                                               ",
"  $ = 6 ! 7 7 8 8 8 8 9 9 9 8 8 8 8 7 7 7 7 4 4 4 } { { ] ] ] ~ ~ ^ / / 0 - $ $ @                                               ",
"  $ = 6 ! 7 7 8 8 8 9 9 9 9 9 9 8 8 8 7 7 7 7 4 4 } } { { { ] ~ ~ ^ ^ / 0 - $ $ @                                               ",
"  $ = 6 ! 7 7 8 8 8 9 9 9 9 9 9 9 8 8 8 7 7 7 4 4 4 } { { { ] ] ~ ~ ^ / 0 - $ $ @                                               ",
"  $ = 6 ! 7 7 7 8 8 8 8 9 9 9 9 8 8 8 8 7 7 7 7 4 4 } } { { ] ] ~ ~ ^ ^ 0 - $ $ @                                               ",
"  $ = 6 ! 4 4 7 7 7 8 8 8 8 8 8 8 8 8 7 7 7 4 4 4 4 } } { { { ] ~ ~ ^ ^ 0 - $ $ @                                               ",
"  $ = 6 ! 4 4 4 4 7 7 7 7 7 7 7 7 7 7 7 7 4 4 4 4 4 } { { { ] ] ~ ~ ^ ^ 0 - $ $ @                                               ",
"  $ = 6 ! } } } 4 4 4 4 7 7 7 7 7 7 7 4 4 4 4 4 4 } } { { { ] ] ~ ~ ^ ^ 0 - $ $ @                                               ",
"  $ = 6 3 { { } } } } 4 4 4 4 4 4 4 4 4 4 4 } } } { { { { ] ] ~ ~ ~ ^ / 0 - $ $ @                                               ",
"  $ = 6 3 ] ] { { { } } } } } } } } } } } } } { { { { ] ] ] ~ ~ ~ ^ ^ / 0 - $ $ @                                               ",
"  $ = 6 3 ~ ] ] ] { { { { { { { { { { { { { { { { ] ] ] ~ ~ ~ ~ ^ / / / 0 - $ $ @                                               ",
"  $ = 6 a ^ ~ ~ ~ ] ] ] ] ] { { { { { { { ] ] ] ] ] ~ ~ ~ ^ ^ ^ / / / b 1 [ > , c                                               ",
"  $ = 6 a / ^ ^ ^ ^ ~ ~ ~ ~ ~ ] ] ] ] ] ] ~ ~ ~ ~ ~ ^ ^ ^ ^ / / / b 0 1 d @ ' $ $ $ $ $ $ ' - 0                                 ",
"  $ = 6 a / / / / / ^ ^ ^ ^ ^ ^ ^ ^ ^ ^ ^ ^ ^ ^ ^ ^ ^ / / / / b 5 e 2 f f g g ' $ $ $ $ $ $ $ $ $ # h                           ",
"  $ = 6 a ( ( ( ( / / / / / / / / / / / / / / / / / / / / b 0 1 i i < < f f j j ' $ $ $ $ $ $ $ $ $ $ # k                       ",
"  $ = 6 d | | ( ( ( ( ( l l l l / / / / / / / l l l l l _ 5 : i i m m m f f j j + + + $ $ $ $ $ $ $ $ $ $ :                     ",
"  $ = 6 d | | | | | | | ( ( ( ( ( ( ( ( ( ( ( ( ( ( ( _ 1 n . o n m m m f @ p q q r , + $ $ $ $ $ $ $ ; , s @                   ",
"  $ = 6 a | | | | | | | | | | | | | | | | | | | | | _ 1 t u v v w i i 2 [ x y z y A B s $ ; , C C ; D E F F D )                 ",
"  $ = = [ | | | | | | | | | | | | | | | | | | | | _ 1 1 o G H H v u . - I J J K K A B > + L F F M N y A A A y O ;               ",
"  $ = * @ 1 | | | | | | | | | | | | | | | | | | _ 1 5 o P Q Q H G R G w r J J J K M S ; , B A A A y A A A A A A O @             ",
"  $ = * g n e a a a a a a a a a a a a a a a a a w 1 o T Q Q Q U V v v I W I J X r q x > M A A A A A A A A A A A y D .           ",
"  $ * * g g g g g g g g g g g g g g g g g g g # d 3 P Y Y Y P V V H H H x I Z p # @ q L F A ` F A A A A A A A A A E s           ",
"  + & * * * * * * * * * * * * * * * * * * * * , 1 T Y Y Y Y Y U G H H H  .d - 2 2 # x ..+.A A A A A A A A A A A A A W )         ",
"    ) + $ $ $ $ $ $ $ $ $ $ $ $ $ $ $ $ $ $ ; d o Y Y Y Y Y Y Y Q Q Q G d i m m m f q F F A A A A A A A A A A A A A .., h       ",
"                        @.@.@.@.@.@.@.@.@.@.#.a T Y $.$.$.$.Y Y Y Q Q v . %.m m m f c ..A A A A A A A A A A A A A A A M @       ",
"                        @.@.@.@.@.@.@.@.@.@.S o Y Y $.$.$.&. .Y Y Y *.*.. %.%.m m 2 =.K K +.N W -.F A A A A A A A A A y ,       ",
"                        6 @.@.@.@.@.@.@.@.#.[ U Y Y $.$.$.&.V P Y *.a : t %.%.m m 2 p z z ....-.W ` F A A A A A A A A A W e     ",
"                        > @.@.@.@.@.@.@.@.#.d Q Y Y Y $.$.$.$.;.o : >.>.>.%.%.%.m 2 p X J K A A A A A A A A A A A A A A B >     ",
"                        [ @.@.@.@.@.@.@.@.#.,.Q Q Q Y $.$.$.$.o t >.>.>.>.%.%.%.m - x J J J A A A A A A F F A A A A -.A A D     ",
"                        w @.@.@.@.@.@.@.@.L '.Q Q Q Y Y Y $.;.1 _ >.>.>.>.%.%.%.m @ I J J J K A A A A A ).).A A A ..D W F M !.  ",
"                ~.h 0 5 : 2 2 f f f f g ) p '.H Q Q T P Y T u >.>.>.>.>.>.%.%.%.i p {.{.J J K A A A A A A A A A y O ; s M B ].  ",
"          ^./.(.(././._._.l l | | >.>.>.n [ '.H H H R V T P 3 >.>.>.>.>.>.%.%.%.<  .{.{.J J J K A A A A A A A A -.s $ $ s r 1   ",
"        !.:.:.(.(././._._.l l | | >.>.>.n [ =.H H H  .d u T <.>.>.>.>.>.>.%.%.%.2 =.{.{.J J J K A A A A A A A A E ; $ $ $ + 1   ",
"      [.0 :.:.(.(././._._.l l | | >.>.>.n d - '.H H H U a a a : t >.>.>.>.%.%.%.i w {.{.{.J J K A A A A A A A F D + $ $ $ $ 5   ",
"        a %./.(.(././._._.l l | | >.>.>.n - 2 - }.H H *.o U *.U ,.e t %.%.%.%.%.m 2 }.v I |.|.B K A A A A A A W ; $ $ $ $ $ 0   ",
"        1 = = = = = = = = = = = = = = = = > 2 2 - o d . [ Q Q Q Q *.,.d . n n %.m m 2 @ @ @ @ L K A A A A A M s $ $ $ $ $ $ k   ",
"          ) = = = = = = = = = = = = = = = , f f f < < < [ H Q Q Q Q Q Q G  .d i i m m m f f f > K A A A A A N ; $ $ $ $ $ $     ",
"            h d > > > > > > > > > > > > > L f f f < < <  .H H H H Q Q Q Q Q v u i m m m f f f > ..A A A A A y D s ; $ $ $ '     ",
"                                            . f f f < - G H H H H H H H H H H =.2 m m m f f f ) E A A A A A A -.F C + $ $ .     ",
"                                            0 g g f f - '.{.H H H H H H H H H '.. < < < f f f ) E K A A A A y ).A O + $ $       ",
"                                              j j f f f }.{.{.{.H H H H H H H  .2 < < < f f f ) r K A A A A +...F D $ $ '       ",
"                                              : j j f f - }.Z {.{.{.{.{.{.{.{.}.2 2 2 f f f f j L K A A A B , C C ; $ $ :       ",
"                                                ' j j j f f @ R {.{.{.{.{.{.I - < < < f f f g g > B A A A L ; + + + $ '         ",
"                                                : ' j j f f f c {.{.{.{.{.{.}.2 2 2 f f f f g g # D z F B s $ $ $ $ $ 5         ",
"                                                  # ' ' g g g @ I J {.{.{.x @ 2 2 f f f f f g g ' ' s s s + $ $ $ $ #           ",
"                                                    ' ' ' j j # q J J J J q f f f f f f f g g ' ' ' $ $ $ $ $ $ $ $             ",
"                                                      ' ' ' j j ) E J J |.@ f f f f f f g g g ' ' $ $ $ $ $ $ $ $               ",
"                                                        ' ' ' ' ' S X J z @ f f f g g g g g ' ' ' $ $ $ $ $ $ $                 ",
"                                                          $ ' ' ' ) r K z @ g g g g g g g ' ' ' $ $ $ $ $ $ $                   ",
"                                                            # ' ' ' , F F > j j j j j j ' ' ' ' $ $ $ $ $ '                     ",
"                                                              . $ $ ; M A q ' ' ' ' ' ' ' ' ' $ $ $ $ $ :                       ",
"                                                                  . $ > x C ' ' ' ' ' ' ' ' $ $ $ $ .                           ",
"                                                                      . @ + + ' ' ' ' $ $ $ $ # 5                               ",
"                                                                            + + + + $ $ $                                       "};
